<svg width="36" height="40" viewBox="0 0 36 40" fill="none" xmlns="http://www.w3.org/2000/svg">
<path d="M12.0411 32.2079C12.0411 32.3734 11.8742 32.5057 11.6637 32.5057C11.4242 32.5305 11.2573 32.3982 11.2573 32.2079C11.2573 32.0425 11.4242 31.9102 11.6347 31.9102C11.8524 31.8854 12.0411 32.0177 12.0411 32.2079ZM9.78387 31.8357C9.73306 32.0012 9.87823 32.1914 10.096 32.241C10.2847 32.3237 10.5024 32.241 10.546 32.0756C10.5895 31.9102 10.4516 31.7199 10.2339 31.6455C10.0452 31.5876 9.83468 31.6703 9.78387 31.8357ZM12.9919 31.6951C12.7815 31.753 12.6363 31.9102 12.6581 32.1004C12.6798 32.2658 12.8685 32.3734 13.0863 32.3155C13.2968 32.2576 13.4419 32.1004 13.4202 31.935C13.3984 31.7778 13.2024 31.6703 12.9919 31.6951ZM17.7677 0C7.70081 0 0 8.70955 0 20.1817C0 29.3544 5.06613 37.2037 12.3024 39.9663C13.2315 40.1565 13.5581 39.5031 13.5581 38.9655C13.5581 38.4527 13.5363 35.6239 13.5363 33.887C13.5363 33.887 8.45564 35.1277 7.38871 31.4222C7.38871 31.4222 6.56129 29.0153 5.37097 28.3949C5.37097 28.3949 3.70887 27.0964 5.4871 27.1212C5.4871 27.1212 7.29435 27.2866 8.28871 29.2551C9.87823 32.4478 12.5419 31.5297 13.5798 30.9838C13.7468 29.6604 14.2185 28.7423 14.7411 28.1964C10.6839 27.6836 6.59032 27.0136 6.59032 19.0568C6.59032 16.7822 7.14194 15.6408 8.30323 14.1851C8.11452 13.6474 7.49758 11.4308 8.49193 8.56893C10.0089 8.03131 13.5 10.8022 13.5 10.8022C14.9516 10.339 16.5121 10.0991 18.0581 10.0991C19.604 10.0991 21.1645 10.339 22.6161 10.8022C22.6161 10.8022 26.1073 8.02304 27.6242 8.56893C28.6185 11.439 28.0016 13.6474 27.8129 14.1851C28.9742 15.6491 29.6855 16.7905 29.6855 19.0568C29.6855 27.0385 25.4105 27.6753 21.3532 28.1964C22.021 28.8498 22.5871 30.0905 22.5871 32.0342C22.5871 34.8216 22.5653 38.2707 22.5653 38.9489C22.5653 39.4866 22.8992 40.14 23.821 39.9498C31.079 37.2037 36 29.3544 36 20.1817C36 8.70955 27.8347 0 17.7677 0ZM7.05484 28.5273C6.96048 28.61 6.98226 28.8002 7.10565 28.9574C7.22177 29.0897 7.38871 29.1476 7.48306 29.0401C7.57742 28.9574 7.55565 28.7671 7.43226 28.61C7.31613 28.4776 7.14919 28.4197 7.05484 28.5273ZM6.27097 27.8573C6.22016 27.9648 6.29274 28.0972 6.4379 28.1799C6.55403 28.2626 6.69919 28.2378 6.75 28.122C6.80081 28.0145 6.72822 27.8821 6.58306 27.7994C6.4379 27.7498 6.32177 27.7746 6.27097 27.8573ZM8.62258 30.8018C8.50645 30.9094 8.55 31.1575 8.71694 31.3147C8.88387 31.5049 9.09435 31.5297 9.18871 31.3974C9.28306 31.2898 9.23952 31.0417 9.09435 30.8846C8.93468 30.6943 8.71694 30.6695 8.62258 30.8018ZM7.79516 29.586C7.67903 29.6687 7.67903 29.8837 7.79516 30.074C7.91129 30.2642 8.10726 30.3469 8.20161 30.2642C8.31774 30.1567 8.31774 29.9416 8.20161 29.7514C8.1 29.5612 7.91129 29.4785 7.79516 29.586Z" fill="#115E59"/>
</svg>
