<svg width="37" height="40" viewBox="0 0 37 40" fill="none" xmlns="http://www.w3.org/2000/svg">
<g clip-path="url(#clip0_35_60)">
<path d="M18.5085 11.0156C13.2558 11.0156 9.01896 15.0234 9.01896 19.9922C9.01896 24.9609 13.2558 28.9687 18.5085 28.9687C23.7612 28.9687 27.998 24.9609 27.998 19.9922C27.998 15.0234 23.7612 11.0156 18.5085 11.0156ZM18.5085 25.8281C15.1141 25.8281 12.3391 23.2109 12.3391 19.9922C12.3391 16.7734 15.1058 14.1562 18.5085 14.1562C21.9111 14.1562 24.6779 16.7734 24.6779 19.9922C24.6779 23.2109 21.9029 25.8281 18.5085 25.8281ZM30.5995 10.6484C30.5995 11.8125 29.6085 12.7422 28.3862 12.7422C27.1556 12.7422 26.1728 11.8047 26.1728 10.6484C26.1728 9.49219 27.1638 8.55469 28.3862 8.55469C29.6085 8.55469 30.5995 9.49219 30.5995 10.6484ZM36.8846 12.7734C36.7442 9.96875 36.067 7.48438 33.8949 5.4375C31.731 3.39062 29.1047 2.75 26.1397 2.60937C23.0839 2.44531 13.9248 2.44531 10.869 2.60937C7.91227 2.74219 5.28593 3.38281 3.11383 5.42969C0.941731 7.47656 0.272757 9.96094 0.124097 12.7656C-0.0493408 15.6562 -0.0493408 24.3203 0.124097 27.2109C0.264498 30.0156 0.941731 32.5 3.11383 34.5469C5.28593 36.5938 7.90401 37.2344 10.869 37.375C13.9248 37.5391 23.0839 37.5391 26.1397 37.375C29.1047 37.2422 31.731 36.6016 33.8949 34.5469C36.0587 32.5 36.7359 30.0156 36.8846 27.2109C37.058 24.3203 37.058 15.6641 36.8846 12.7734ZM32.9368 30.3125C32.2926 31.8438 31.0455 33.0234 29.4185 33.6406C26.9821 34.5547 21.2009 34.3438 18.5085 34.3438C15.8161 34.3438 10.0266 34.5469 7.59843 33.6406C5.97968 33.0312 4.73258 31.8516 4.08012 30.3125C3.11383 28.0078 3.33682 22.5391 3.33682 19.9922C3.33682 17.4453 3.12209 11.9688 4.08012 9.67188C4.72432 8.14062 5.97142 6.96094 7.59843 6.34375C10.0348 5.42969 15.8161 5.64062 18.5085 5.64062C21.2009 5.64062 26.9904 5.4375 29.4185 6.34375C31.0373 6.95312 32.2844 8.13281 32.9368 9.67188C33.9031 11.9766 33.6801 17.4453 33.6801 19.9922C33.6801 22.5391 33.9031 28.0156 32.9368 30.3125Z" fill="#115E59"/>
</g>
<defs>
<clipPath id="clip0_35_60">
<rect width="37" height="40" fill="white"/>
</clipPath>
</defs>
</svg>
