<svg width="34" height="37" viewBox="0 0 34 37" fill="none" xmlns="http://www.w3.org/2000/svg">
<path d="M31.5714 0H2.42098C1.08527 0 0 1.19755 0 2.66763V34.3324C0 35.8025 1.08527 37 2.42098 37H31.5714C32.9071 37 34 35.8025 34 34.3324V2.66763C34 1.19755 32.9071 0 31.5714 0ZM10.2759 31.7143H5.23661V14.0567H10.2835V31.7143H10.2759ZM7.75625 11.6451C6.13973 11.6451 4.83437 10.2163 4.83437 8.4654C4.83437 6.71451 6.13973 5.28571 7.75625 5.28571C9.36518 5.28571 10.6781 6.71451 10.6781 8.4654C10.6781 10.2246 9.37277 11.6451 7.75625 11.6451ZM29.1656 31.7143H24.1263V23.125C24.1263 21.0768 24.0884 18.4422 21.508 18.4422C18.8821 18.4422 18.4799 20.6721 18.4799 22.9763V31.7143H13.4406V14.0567H18.275V16.4683H18.3433C19.0188 15.0808 20.6656 13.619 23.117 13.619C28.217 13.619 29.1656 17.2777 29.1656 22.0348V31.7143Z" fill="#115E59"/>
</svg>
